<?xml version="1.0" encoding="UTF-8"?>
<svg xmlns="http://www.w3.org/2000/svg" viewBox="0 -108.46 926.62 926.62">
  <style>
    .sym { fill: #111; }
    @media (prefers-color-scheme: dark) {
      .sym { fill: #f2f2f2; }
    }
  </style>
  <path class="sym" d="M831.6,140.32c-93.67-93.3-234.12-125.34-234.12-125.34-20.36-4.67-41.12-8.21-62.14-10.7v52.07c7.78,1.01,15.54,2.12,23.22,3.46,12.67,2.21,24,9.33,31.43,19.83,44.22,62.48,71.45,153.05,75.29,251.21h-98.03c-44.15,0-79.93-35.79-79.93-79.93V52.16h0V.52c-7.99-.31-15.99-.52-24.02-.52-53.35,0-144.49,19.34-144.49,19.34-89.2,22.17-166.42,63.82-223.78,120.96C32.86,202.23,0,276.42,0,354.87s32.86,152.65,95.04,214.58c93.98,93.6,234.17,125.35,234.17,125.35,20.32,4.65,41.06,8.17,62.07,10.65v-52.04c-3.81-.49-7.62-.99-11.41-1.56-20.91-3.16-39.43-15.28-50.85-33.07-39.72-61.86-64.01-147.53-67.62-239.9h97.96c44.15,0,79.93,35.79,79.93,79.93v124.4h0v125.98c7.98.31,15.98.52,24.01.52,45.73,0,90.86-5.02,134.13-14.91,0,0,140.56-32.16,234.15-125.37,62.17-61.92,95.04-136.12,95.04-214.55s-32.86-152.63-95.02-214.55ZM273.29,625.86c-56.43-21.53-106.32-52.56-144.36-90.44-46.41-46.22-73.63-99.93-79.63-156.55h160.42c3.38,92.25,26.05,179.27,63.57,246.99ZM439.3,250.91c0,44.15-35.79,79.93-79.93,79.93h-97.96s-51.69,0-51.69,0h0s-160.42,0-160.42,0c6-56.61,33.22-110.3,79.63-156.52,38.03-37.88,87.92-68.91,144.34-90.45-30.92,55.83-51.76,124.78-60.03,198.94h51.94c9.52-79.33,34.56-151.05,71.47-203.19,7.43-10.51,18.77-17.65,31.45-19.86,23.29-4.05,47.1-6.6,71.2-7.62v198.75ZM653.4,83.91c56.41,21.53,106.29,52.56,144.31,90.43,46.4,46.21,73.61,99.9,79.61,156.5h-160.39c-3.38-92.24-26.04-179.23-63.54-246.93ZM797.7,535.4c-38.02,37.87-87.9,68.9-144.32,90.44,30.93-55.83,51.77-124.77,60.03-198.95h-51.96c-8.86,73.82-31.12,141.07-63.94,192.05-11.37,17.66-29.73,29.73-50.5,32.87-19.61,2.97-39.56,4.87-59.69,5.71v-198.72c0-44.15,35.79-79.93,79.93-79.93h310.06c-6,56.61-33.22,110.3-79.63,156.53Z"/>
</svg>
